<?xml version="1.0" ?><svg id="Layer_1" style="enable-background:new 0 0 50 50;" version="1.1" viewBox="0 0 50 50" xml:space="preserve" xmlns="http://www.w3.org/2000/svg" xmlns:xlink="http://www.w3.org/1999/xlink"><style type="text/css">
	.st0{fill:#F0C4DB;}
	.st1{fill:#FF9D9C;}
	.st2{fill:#9BEAF9;}
	.st3{fill:#E9F4BC;}
	.st4{fill:#505050;}
	.st5{fill:#FEBECC;}
	.st6{fill:#FFFFFF;}
	.st7{fill:#FDE4A1;}
	.st8{fill:#FEE7B5;}
	.st9{fill:#CDF6FC;}
	.st10{fill:#F2C6DD;}
	.st11{opacity:0.1;}
</style><g><path class="st9" d="M22.29,1.92c0,9.25,7.5,16.74,16.74,16.74c2.26,0,4.42-0.45,6.39-1.27V1.12H22.33   C22.32,1.39,22.29,1.65,22.29,1.92z"/><g><path class="st1" d="M18.6,39.29v8.83h-4.63H9.33V36.45H7.95c-1.57,0-2.83-1.27-2.83-2.83V21.29c0-1.57,1.25-2.83,2.83-2.83h3.5    l2.52,6.08l2.53-6.08H20c1.57,0,2.83,1.25,2.83,2.83v5.53"/><path class="st6" d="M20.25,8.4c0,2.49-1.46,4.65-3.56,5.65c-0.82,0.4-1.74,0.63-2.72,0.63s-1.91-0.22-2.73-0.63    c-2.11-1.01-3.56-3.15-3.56-5.65c0-3.47,2.82-6.28,6.29-6.28C17.43,2.12,20.25,4.93,20.25,8.4z"/><g><ellipse class="st3" cx="27.54" cy="35.37" rx="9.76" ry="9.76" transform="matrix(0.2298 -0.9732 0.9732 0.2298 -13.2134 54.0487)"/></g><g><path class="st4" d="M11.12,14.72c0.94,0.46,1.99,0.71,3.06,0.71c1.07,0,2.1-0.24,3.04-0.7c2.42-1.15,3.99-3.63,3.99-6.32     c0-3.87-3.15-7.03-7.03-7.03c-3.88,0-7.04,3.15-7.04,7.03C7.15,11.13,8.67,13.55,11.12,14.72z M14.18,2.88     c3.05,0,5.53,2.48,5.53,5.53c0,2.11-1.23,4.06-3.14,4.97c-1.48,0.73-3.31,0.73-4.79,0c-1.93-0.93-3.13-2.83-3.13-4.97     C8.65,5.35,11.13,2.88,14.18,2.88z"/><path class="st4" d="M31.32,27.09c0.09,0.04,0.19,0.06,0.3,0.06c0.3,0,0.57-0.17,0.69-0.45c0.16-0.38-0.02-0.82-0.4-0.98     c-0.37-0.17-0.82,0.02-0.98,0.39c-0.08,0.18-0.08,0.38-0.01,0.57C30.99,26.87,31.14,27.01,31.32,27.09z"/><path class="st4" d="M33.79,26.77c-0.33-0.24-0.82-0.15-1.04,0.18c-0.12,0.16-0.16,0.36-0.13,0.56c0.03,0.2,0.14,0.37,0.31,0.48     c2.4,1.69,3.83,4.45,3.83,7.38c-0.01,4.96-4.05,9.01-9.01,9.01c-4.96,0-9-4.05-9.01-9.01c0.01-4.96,4.05-9,9.01-9.01     c0.61,0,1.22,0.06,1.81,0.18c0.4,0.08,0.81-0.19,0.89-0.58c0.04-0.2,0-0.4-0.11-0.57s-0.28-0.28-0.48-0.32     c-0.69-0.14-1.4-0.21-2.11-0.21c-1.4,0-2.74,0.28-3.96,0.78v-4.35c0-1.97-1.61-3.58-3.58-3.58h-3.49c-0.3,0-0.58,0.18-0.69,0.46     l-1.84,4.41l-1.83-4.41c-0.12-0.28-0.39-0.46-0.69-0.46h-3.5c-1.97,0-3.58,1.6-3.58,3.58v12.33c0,1.97,1.6,3.58,3.58,3.58h0.64     v10.93c0,0.41,0.34,0.75,0.75,0.75h4.63c0,0,0,0,0.01,0s0,0,0.01,0h4.62c0.41,0,0.75-0.34,0.75-0.75v-6.18     c1.93,2.4,4.88,3.93,8.19,3.93c5.8,0,10.51-4.71,10.51-10.51C38.26,31.95,36.59,28.74,33.79,26.77z M18.06,47.37h-3.13v-4.48     c0-0.41-0.34-0.75-0.75-0.75s-0.75,0.34-0.75,0.75v4.48h-3.14V36.45c0-0.41-0.34-0.75-0.75-0.75H8.16     c-1.15,0-2.08-0.93-2.08-2.08V21.29c0-1.16,0.91-2.08,2.08-2.08h3l2.33,5.61c0.12,0.28,0.39,0.46,0.69,0.46h0     c0.3,0,0.58-0.18,0.69-0.46l2.34-5.61h2.99c1.15,0,2.08,0.93,2.08,2.08v5.12c-3.02,1.85-5.05,5.17-5.05,8.96     c0,1.45,0.29,2.82,0.82,4.08V47.37z"/><path class="st4" d="M30.61,31.49c0.39,0.13,0.82-0.08,0.95-0.48c0.13-0.39-0.08-0.82-0.48-0.95c-2.01-0.66-4.19-0.14-5.7,1.36     c-0.55,0.55-0.95,1.18-1.23,1.85h-0.89c-0.41,0-0.75,0.34-0.75,0.75s0.34,0.75,0.75,0.75h0.54c-0.05,0.51-0.05,1.02,0.03,1.53     h-0.57c-0.41,0-0.75,0.34-0.75,0.75s0.34,0.75,0.75,0.75h1.06c0.26,0.55,0.6,1.07,1.05,1.52c1.07,1.07,2.49,1.64,3.94,1.64     c0.59,0,1.18-0.09,1.76-0.28c0.39-0.13,0.61-0.55,0.48-0.95c-0.13-0.39-0.55-0.61-0.95-0.48c-1.47,0.48-3.07,0.1-4.17-1     c-0.14-0.14-0.26-0.3-0.38-0.46h3.6c0.41,0,0.75-0.34,0.75-0.75s-0.34-0.75-0.75-0.75h-4.3c-0.07-0.3-0.12-0.61-0.12-0.93     c0-0.2,0.03-0.4,0.06-0.6h4.36c0.41,0,0.75-0.34,0.75-0.75s-0.34-0.75-0.75-0.75h-3.83c0.17-0.28,0.36-0.55,0.6-0.79     C27.54,31.38,29.14,31,30.61,31.49z"/></g></g></g></svg>