<?xml version="1.0" ?><svg height="48" viewBox="0 0 48 48" width="48" xmlns="http://www.w3.org/2000/svg"><defs><style>.cls-1{fill:#c4796c;}.cls-2{fill:#c48d6c;}.cls-3{fill:#474c54;}</style></defs><title/><g data-name="13-Wall" id="_13-Wall"><g data-name="&lt;Group&gt;" id="_Group_"><rect class="cls-1" height="8" width="7" x="40" y="32"/><path class="cls-1" d="M47,40v4a3,3,0,0,1-3,3H36V40H47Z"/><polygon class="cls-1" points="40 32 40 40 36 40 31 40 31 32 35 32 40 32"/><polygon class="cls-1" points="35 24 35 32 31 32 24 32 24 24 27 24 35 24"/><polygon class="cls-1" points="25 40 25 47 13 47 13 40 20 40 25 40"/><polygon class="cls-1" points="20 32 20 40 13 40 8 40 8 32 11 32 20 32"/><polygon class="cls-1" points="11 24 11 32 8 32 1 32 1 24 11 24"/><polygon class="cls-1" points="27 24 24 24 15 24 15 16 20 16 27 16 27 24"/><rect class="cls-1" height="8" width="7" x="20" y="8"/><polygon class="cls-1" points="27 1 27 8 20 8 14 8 14 1 27 1"/><rect class="cls-1" height="8" width="8" x="1" y="8"/><path class="cls-2" d="M13,40v7H4a3,3,0,0,1-3-3V40H13Z"/><polygon class="cls-2" points="36 40 36 47 25 47 25 40 31 40 36 40"/><polygon class="cls-2" points="47 24 47 32 40 32 35 32 35 24 47 24"/><polygon class="cls-2" points="31 32 31 40 25 40 20 40 20 32 24 32 31 32"/><polygon class="cls-2" points="24 24 24 32 20 32 11 32 11 24 15 24 24 24"/><rect class="cls-2" height="8" width="7" x="1" y="32"/><polygon class="cls-2" points="15 16 15 24 11 24 1 24 1 16 9 16 15 16"/><polygon class="cls-2" points="20 8 20 16 15 16 9 16 9 8 14 8 20 8"/><path class="cls-2" d="M14,1V8H1V4A3,3,0,0,1,4,1Z"/><path class="cls-3" d="M47,23H35a1,1,0,0,0-1,1v7H25V25h6a1,1,0,0,0,0-2H16V17H26v3a1,1,0,0,0,2,0V1a1,1,0,0,0-1-1H4A4,4,0,0,0,0,4V44a4,4,0,0,0,4,4H44a4,4,0,0,0,4-4V24A1,1,0,0,0,47,23ZM32,39V33h7v6ZM2,39V33H7v6ZM19,9v6H10V9ZM8,15H2V9H8ZM2,31V25h8v6Zm7,2H19v6H9Zm21,0v6H21V33Zm-6,8v5H14V41Zm2,0h9v5H26Zm15-8h5v6H41Zm-5-8H46v6H36ZM23,31H12V25H23Zm-9-8H2V17H14Zm7-8V9h5v6Zm5-8H15V2H26ZM4,2h9V7H2V4A2,2,0,0,1,4,2ZM2,44V41H12v5H4A2,2,0,0,1,2,44Zm42,2H37V41h9v3A2,2,0,0,1,44,46Z"/></g></g></svg>