<?xml version="1.0" ?><svg id="Layer_1" style="enable-background:new 0 0 50 50;" version="1.1" viewBox="0 0 50 50" xml:space="preserve" xmlns="http://www.w3.org/2000/svg" xmlns:xlink="http://www.w3.org/1999/xlink"><style type="text/css">
	.st0{fill:#F0C4DB;}
	.st1{fill:#FF9D9C;}
	.st2{fill:#9BEAF9;}
	.st3{fill:#E9F4BC;}
	.st4{fill:#505050;}
	.st5{fill:#FEBECC;}
	.st6{fill:#FFFFFF;}
	.st7{fill:#FDE4A1;}
	.st8{fill:#FEE7B5;}
	.st9{fill:#CDF6FC;}
	.st10{fill:#F2C6DD;}
	.st11{opacity:0.1;}
</style><g><path class="st10" d="M1.13,7.84c0,7.59,6.04,13.95,13.63,14.03c0.06,0,0.11,0,0.17,0c9.17,0,16.6-7.43,16.6-16.6   c0-0.47-0.03-0.93-0.07-1.38H1.13V7.84z"/><g><polyline class="st1" points="6.17,30.93 2.13,30.93 2.13,8.84 39.56,8.84 39.56,12.89   "/><circle class="st3" cx="39.03" cy="36.26" r="9.1"/><path class="st10" d="M39.03,27.16c1.86,0,3.59,0.56,5.03,1.52V12.88H6.17v23.31h23.76C29.97,31.2,34.02,27.16,39.03,27.16z"/><path class="st6" d="M39.03,27.16c0.48,0,0.96,0.05,1.42,0.12V19.2c-1.5,0-2.71-1.21-2.71-2.71H12.48c0,1.5-1.21,2.71-2.7,2.71    v10.67c1.49,0,2.7,1.21,2.7,2.71h18.23C32.12,29.39,35.31,27.16,39.03,27.16z"/><g><path class="st4" d="M39.03,33.01c0.69,0,1.25,0.56,1.25,1.25c0,0.41,0.34,0.75,0.75,0.75s0.75-0.34,0.75-0.75     c0-1.25-0.85-2.3-2-2.63v-0.4c0-0.41-0.34-0.75-0.75-0.75s-0.75,0.34-0.75,0.75v0.4c-1.15,0.33-2,1.38-2,2.63     c0,1.52,1.23,2.75,2.75,2.75c0.69,0,1.25,0.56,1.25,1.25s-0.56,1.25-1.25,1.25s-1.25-0.56-1.25-1.25c0-0.41-0.34-0.75-0.75-0.75     s-0.75,0.34-0.75,0.75c0,1.25,0.85,2.3,2,2.63v0.4c0,0.41,0.34,0.75,0.75,0.75s0.75-0.34,0.75-0.75v-0.4c1.15-0.33,2-1.38,2-2.63     c0-1.52-1.23-2.75-2.75-2.75c-0.69,0-1.25-0.56-1.25-1.25S38.34,33.01,39.03,33.01z"/><path class="st4" d="M25.11,21.53c0.72,0,1.31,0.59,1.31,1.31c0,0.41,0.34,0.75,0.75,0.75s0.75-0.34,0.75-0.75     c0-1.29-0.88-2.37-2.06-2.7v-0.43c0-0.41-0.34-0.75-0.75-0.75s-0.75,0.34-0.75,0.75v0.43c-1.19,0.33-2.06,1.41-2.06,2.7     c0,1.55,1.26,2.81,2.81,2.81c0.72,0,1.31,0.59,1.31,1.31s-0.59,1.31-1.31,1.31s-1.31-0.59-1.31-1.31c0-0.41-0.34-0.75-0.75-0.75     s-0.75,0.34-0.75,0.75c0,1.29,0.88,2.37,2.06,2.7v0.43c0,0.41,0.34,0.75,0.75,0.75s0.75-0.34,0.75-0.75v-0.43     c1.19-0.33,2.06-1.41,2.06-2.7c0-1.55-1.26-2.81-2.81-2.81c-0.72,0-1.31-0.59-1.31-1.31S24.39,21.53,25.11,21.53z"/><path class="st4" d="M44.81,28.3V12.88c0-0.2-0.08-0.39-0.22-0.53c-0.14-0.14-0.34-0.22-0.53-0.22h-3.75V8.84     c0-0.41-0.34-0.75-0.75-0.75H2.13c-0.41,0-0.75,0.34-0.75,0.75v22.09c0,0.41,0.34,0.75,0.75,0.75h3.29v4.51     c0,0.2,0.08,0.39,0.22,0.53c0.14,0.14,0.34,0.22,0.53,0.22h23.04c0.35,5.11,4.61,9.17,9.81,9.17c5.43,0,9.85-4.42,9.85-9.85     C48.88,32.99,47.27,30.09,44.81,28.3z M6.92,13.63h7.93c0.41,0,0.75-0.34,0.75-0.75s-0.34-0.75-0.75-0.75H6.17     c-0.2,0-0.39,0.08-0.53,0.22c-0.14,0.14-0.22,0.33-0.22,0.53v17.3H2.88V9.59h35.93v2.54H18.85c-0.41,0-0.75,0.34-0.75,0.75     s0.34,0.75,0.75,0.75h20.69c0.01,0,0.01,0,0.02,0s0.01,0,0.02,0h3.73V27.4c-0.67-0.32-1.37-0.58-2.11-0.74V19.2     c0-0.41-0.34-0.75-0.75-0.75c-1.08,0-1.96-0.88-1.96-1.96c0-0.41-0.34-0.75-0.75-0.75H12.48c-0.41,0-0.75,0.34-0.75,0.75     c0,1.08-0.88,1.96-1.95,1.96c-0.41,0-0.75,0.34-0.75,0.75v10.67c0,0.41,0.34,0.75,0.75,0.75c1.08,0,1.95,0.88,1.95,1.96     c0,0.41,0.34,0.75,0.75,0.75h17.14c-0.21,0.68-0.34,1.38-0.4,2.11H6.92V13.63z M30.24,31.83H13.15     c-0.29-1.31-1.32-2.34-2.62-2.63v-9.34c1.3-0.29,2.33-1.32,2.62-2.63h23.92c0.29,1.31,1.32,2.34,2.63,2.63v6.58     c-0.22-0.02-0.44-0.03-0.67-0.03C35.19,26.41,31.86,28.62,30.24,31.83z M39.03,44.61c-4.6,0-8.35-3.75-8.35-8.35     c0-4.6,3.75-8.35,8.35-8.35s8.35,3.75,8.35,8.35C47.38,40.86,43.63,44.61,39.03,44.61z"/><circle class="st4" cx="16.85" cy="12.88" r="0.75"/></g></g></g></svg>