<?xml version="1.0" ?><svg id="Layer_1" style="enable-background:new 0 0 50 50;" version="1.1" viewBox="0 0 50 50" xml:space="preserve" xmlns="http://www.w3.org/2000/svg" xmlns:xlink="http://www.w3.org/1999/xlink"><style type="text/css">
	.st0{fill:#F0C4DB;}
	.st1{fill:#FF9D9C;}
	.st2{fill:#9BEAF9;}
	.st3{fill:#E9F4BC;}
	.st4{fill:#505050;}
	.st5{fill:#FEBECC;}
	.st6{fill:#FFFFFF;}
	.st7{fill:#FDE4A1;}
	.st8{fill:#FEE7B5;}
	.st9{fill:#CDF6FC;}
	.st10{fill:#F2C6DD;}
	.st11{opacity:0.1;}
</style><g><path class="st8" d="M11.01,10.37h18.35c-0.6-3.48-2.11-6.65-4.3-9.24H1.12v29.81c2.7,1.42,5.77,2.23,9.03,2.23   c0.29,0,0.57-0.03,0.85-0.04V10.37z"/><g><circle class="st3" cx="25.13" cy="25.12" r="8.75"/><path class="st1" d="M48.13,27.74v-5.24l-5.35-1.14c-0.47-2.2-1.34-4.24-2.52-6.07l2.99-4.58l-3.71-3.71L34.95,10    c-1.82-1.19-3.87-2.06-6.07-2.52l-1.14-5.35h-5.24l-1.14,5.35c-2.2,0.47-4.24,1.34-6.07,2.52l-4.58-2.99l-3.71,3.71L10,15.3    c-1.19,1.82-2.06,3.87-2.52,6.07l-5.35,1.14v5.24l5.35,1.14c0.47,2.2,1.34,4.24,2.52,6.06l-2.99,4.58l3.71,3.71l4.58-2.99    c1.82,1.19,3.87,2.06,6.06,2.52l1.14,5.35h5.24l1.14-5.35c2.2-0.47,4.24-1.34,6.06-2.52l4.58,2.99l3.71-3.71l-2.99-4.58    c1.19-1.82,2.06-3.87,2.52-6.07L48.13,27.74z M25.13,37.87c-7.04,0-12.75-5.71-12.75-12.75c0-7.04,5.71-12.75,12.75-12.75    c7.04,0,12.75,5.71,12.75,12.75C37.88,32.17,32.17,37.87,25.13,37.87z"/><g><path class="st4" d="M11.63,25.12c0,7.44,6.06,13.5,13.5,13.5s13.5-6.06,13.5-13.5c0-7.44-6.06-13.5-13.5-13.5     S11.63,17.68,11.63,25.12z M37.13,25.12c0,6.62-5.38,12-12,12s-12-5.38-12-12c0-6.62,5.38-12,12-12S37.13,18.51,37.13,25.12z"/><path class="st4" d="M15.63,25.12c0,5.24,4.26,9.5,9.5,9.5c5.24,0,9.5-4.26,9.5-9.5c0-5.24-4.26-9.5-9.5-9.5     C19.89,15.62,15.63,19.89,15.63,25.12z M33.13,25.12c0,4.41-3.59,8-8,8c-4.41,0-8-3.59-8-8c0-4.41,3.59-8,8-8     C29.54,17.12,33.13,20.71,33.13,25.12z"/><path class="st4" d="M28.12,46.38c-0.41-0.09-0.81,0.18-0.89,0.58c-0.04,0.19-0.01,0.39,0.1,0.56s0.28,0.29,0.48,0.33     c0.05,0.01,0.1,0.01,0.15,0.01c0.35,0,0.66-0.25,0.74-0.59C28.78,46.87,28.52,46.47,28.12,46.38z"/><path class="st4" d="M30.67,8.74h0.01c0.08,0.03,0.16,0.04,0.24,0.04c0.32,0,0.6-0.2,0.7-0.51c0.07-0.19,0.05-0.39-0.03-0.57     c-0.09-0.18-0.24-0.31-0.42-0.38h-0.01c-0.39-0.13-0.83,0.09-0.95,0.47c-0.07,0.19-0.06,0.39,0.03,0.57     C30.33,8.54,30.48,8.67,30.67,8.74z"/><path class="st4" d="M26.78,47.37h-3.66l-1.01-4.76c-0.06-0.29-0.29-0.52-0.58-0.58c-2.06-0.43-4.01-1.25-5.81-2.41     c-0.24-0.16-0.58-0.16-0.82,0l-4.07,2.65l-2.85-2.85l2.65-4.07c0.17-0.25,0.17-0.57,0-0.82c-0.6-0.92-1.12-1.91-1.53-2.94     c-0.38-0.92-0.67-1.89-0.88-2.87c-0.06-0.29-0.29-0.52-0.58-0.58l-4.76-1.01v-4.02l4.76-1.01c0.29-0.06,0.52-0.29,0.58-0.58     c0.43-2.06,1.25-4.02,2.41-5.81c0.17-0.25,0.17-0.57,0-0.82l-2.65-4.07l2.85-2.85l4.07,2.65c0.24,0.16,0.57,0.16,0.82,0     c1.79-1.16,3.75-1.98,5.81-2.41c0.29-0.07,0.52-0.29,0.58-0.58l1.01-4.76h4.02l1.01,4.76c0.06,0.29,0.29,0.51,0.58,0.58l0.1,0.02     c0.39,0.09,0.81-0.18,0.89-0.58c0.05-0.23-0.01-0.47-0.17-0.65l-1.07-5.03c-0.07-0.35-0.38-0.6-0.73-0.6H22.5     c-0.35,0-0.66,0.25-0.73,0.6l-1.04,4.88C18.83,7.31,17,8.07,15.31,9.11l-4.17-2.73c-0.3-0.19-0.7-0.15-0.94,0.1l-3.71,3.71     c-0.25,0.25-0.29,0.64-0.1,0.94l2.72,4.18c-1.04,1.69-1.8,3.51-2.25,5.42l-4.89,1.04c-0.34,0.07-0.59,0.38-0.59,0.73v5.24     c0,0.35,0.25,0.66,0.59,0.73l4.89,1.04c0.22,0.9,0.5,1.79,0.85,2.65c0.39,0.95,0.86,1.89,1.41,2.77l-2.73,4.18     c-0.19,0.3-0.15,0.69,0.1,0.94l3.71,3.71c0.24,0.25,0.65,0.29,0.94,0.1l4.18-2.72c1.69,1.04,3.51,1.8,5.42,2.25l1.04,4.89     c0.07,0.34,0.38,0.59,0.73,0.59h4.27c0.41,0,0.75-0.34,0.75-0.75S27.19,47.37,26.78,47.37z"/><path class="st4" d="M48.29,21.77l-4.88-1.04c-0.46-1.91-1.22-3.74-2.26-5.42l2.72-4.18c0.2-0.3,0.16-0.69-0.1-0.94l-3.71-3.71     c-0.24-0.24-0.64-0.29-0.93-0.1L34.95,9.1c-0.6-0.37-1.23-0.7-1.86-1c-0.37-0.17-0.83,0-1,0.36c-0.18,0.37-0.02,0.82,0.36,1     c0.71,0.33,1.42,0.72,2.1,1.16c0.24,0.16,0.57,0.16,0.81,0l4.07-2.65l2.85,2.85l-2.65,4.07c-0.16,0.25-0.16,0.57,0,0.82     c1.17,1.79,1.98,3.75,2.42,5.81c0.05,0.29,0.28,0.52,0.57,0.58l4.76,1.01v4.02l-4.76,1.01c-0.29,0.06-0.51,0.29-0.57,0.58     c-0.44,2.07-1.26,4.02-2.42,5.81c-0.16,0.25-0.16,0.57,0,0.82l2.65,4.07l-2.85,2.85l-4.07-2.65c-0.25-0.16-0.58-0.16-0.82,0     c-1.79,1.16-3.75,1.98-5.81,2.41c-0.29,0.06-0.52,0.29-0.58,0.58L27.64,45c-0.04,0.2,0,0.4,0.11,0.57     c0.11,0.17,0.28,0.28,0.47,0.32c0.05,0.01,0.11,0.02,0.16,0.02c0.35,0,0.66-0.25,0.73-0.6V45.3l0.41-1.91     c1.91-0.45,3.73-1.21,5.42-2.25l4.19,2.72c0.29,0.19,0.69,0.15,0.93-0.1l3.71-3.71c0.26-0.25,0.3-0.64,0.1-0.94l-2.72-4.17     c1.04-1.7,1.8-3.52,2.25-5.43l4.89-1.04c0.35-0.07,0.59-0.37,0.59-0.73V22.5C48.88,22.15,48.64,21.84,48.29,21.77z"/><path class="st4" d="M24.38,19.49V20c-1.28,0.34-2.24,1.49-2.24,2.88c0,1.65,1.34,2.99,2.99,2.99c0.82,0,1.49,0.67,1.49,1.49     s-0.67,1.49-1.49,1.49s-1.49-0.67-1.49-1.49c0-0.41-0.34-0.75-0.75-0.75s-0.75,0.34-0.75,0.75c0,1.39,0.96,2.55,2.24,2.88v0.51     c0,0.41,0.34,0.75,0.75,0.75s0.75-0.34,0.75-0.75v-0.51c1.28-0.34,2.24-1.49,2.24-2.88c0-1.65-1.34-2.99-2.99-2.99     c-0.82,0-1.49-0.67-1.49-1.49s0.67-1.49,1.49-1.49s1.49,0.67,1.49,1.49c0,0.41,0.34,0.75,0.75,0.75s0.75-0.34,0.75-0.75     c0-1.39-0.96-2.55-2.24-2.88v-0.51c0-0.41-0.34-0.75-0.75-0.75S24.38,19.08,24.38,19.49z"/></g></g></g></svg>